<?xml version="1.0" standalone="no"?>
<!DOCTYPE svg PUBLIC "-//W3C//DTD SVG 20010904//EN"
 "http://www.w3.org/TR/2001/REC-SVG-20010904/DTD/svg10.dtd">
<svg version="1.0" xmlns="http://www.w3.org/2000/svg"
 width="500.000000pt" height="500.000000pt" viewBox="0 0 500.000000 500.000000"
 preserveAspectRatio="xMidYMid meet">

<g transform="translate(0.000000,500.000000) scale(0.100000,-0.100000)"
fill="#000000" stroke="none">
<path d="M2276 4245 c-180 -31 -332 -85 -519 -183 -199 -105 -394 -273 -539
-467 -83 -110 -208 -357 -243 -479 -14 -48 -25 -90 -25 -92 0 -2 69 -4 154 -4
85 0 157 -3 159 -7 3 -5 8 -23 12 -40 l7 -33 -175 0 -175 0 -12 -102 c-15
-124 -8 -357 15 -483 15 -84 66 -256 82 -282 9 -13 262 -25 331 -16 l42 6 0
258 0 259 -183 0 -183 0 -23 40 -22 40 250 0 251 0 0 -614 0 -614 48 -41 c26
-23 50 -41 55 -41 4 0 7 295 7 655 l0 655 935 0 935 0 2 -660 3 -660 50 38 50
38 3 619 c1 340 4 620 6 622 2 2 116 2 254 1 l252 -3 -18 -35 -17 -35 -197 -3
-198 -2 0 -260 c0 -142 3 -261 8 -263 4 -3 92 -2 196 2 l190 6 28 95 c72 236
94 465 68 679 l-12 101 -195 0 -194 0 3 38 3 37 181 3 182 2 -30 103 c-56 189
-172 398 -321 575 l-72 85 -5 -454 c-4 -406 -7 -457 -22 -486 -36 -64 -112
-96 -218 -91 l-65 3 0 345 c0 298 2 354 18 409 32 116 74 190 152 267 l72 72
-56 43 c-152 120 -334 223 -501 284 -168 60 -268 77 -495 81 -149 2 -233 -1
-289 -11z m-26 -185 c0 -30 -1 -30 -55 -30 -54 0 -55 0 -55 30 0 30 1 30 55
30 54 0 55 0 55 -30z m320 -25 c0 -21 -5 -25 -30 -25 -25 0 -30 4 -30 25 0 21
5 25 30 25 25 0 30 -4 30 -25z m290 0 c0 -21 -5 -25 -30 -25 -25 0 -30 4 -30
25 0 21 5 25 30 25 25 0 30 -4 30 -25z m-910 -175 c0 -29 -2 -30 -45 -30 -43
0 -45 1 -45 30 0 29 2 30 45 30 43 0 45 -1 45 -30z m1250 0 c0 -30 -1 -30 -55
-30 -54 0 -55 0 -55 30 0 30 1 30 55 30 54 0 55 0 55 -30z m-485 -44 c97 -26
233 -98 303 -161 89 -81 178 -212 203 -297 l8 -28 -115 0 -114 0 0 -29 c0 -39
18 -44 144 -40 l101 4 6 -45 c4 -25 5 -48 2 -52 -2 -5 -65 -8 -139 -8 l-134 0
0 -35 0 -35 124 0 c137 0 155 -3 150 -28 -1 -9 -6 -34 -9 -54 l-6 -38 -133 0
c-142 0 -151 -3 -139 -49 5 -20 12 -21 124 -21 65 0 120 -4 123 -8 2 -4 -5
-26 -17 -47 l-23 -40 -639 0 -639 0 -23 40 c-12 21 -19 43 -17 47 3 4 95 8
205 8 l199 0 0 35 0 35 -215 0 -214 0 -10 38 c-24 85 -29 82 129 82 l140 0 0
35 0 35 -140 0 -140 0 1 33 c1 70 5 72 120 72 l104 0 3 33 3 32 -101 0 c-118
0 -115 -6 -55 113 67 132 166 232 305 310 148 82 356 107 525 63z m-1294 -267
c4 -57 10 -178 14 -269 3 -91 9 -173 11 -182 3 -10 17 -21 31 -24 50 -13 59
14 67 208 7 186 23 368 31 376 16 16 24 -32 34 -203 6 -105 11 -227 11 -272 0
-86 12 -113 49 -113 38 0 43 25 57 267 16 268 21 323 34 323 14 0 19 -29 22
-135 2 -84 -2 -116 -25 -199 -30 -110 -37 -253 -15 -347 l12 -52 -32 -27
c-123 -103 -320 -36 -363 124 -11 41 -9 121 12 426 12 180 17 212 32 207 8 -2
14 -41 18 -108z m-281 -339 c0 -25 -4 -30 -25 -30 -14 0 -28 7 -31 15 -10 25
4 45 31 45 21 0 25 -5 25 -30z m2820 0 c0 -27 -3 -30 -30 -30 -25 0 -30 4 -30
23 0 13 3 27 7 30 3 4 17 7 30 7 19 0 23 -5 23 -30z m-42 -750 c9 0 12 -11 10
-32 -3 -30 -6 -33 -38 -33 -29 0 -36 4 -38 23 -6 38 5 55 31 48 12 -3 28 -6
35 -6z m-2628 -135 c0 -33 -2 -35 -35 -35 -33 0 -35 2 -35 35 0 33 2 35 35 35
33 0 35 -2 35 -35z m2515 -90 c0 -27 -3 -30 -30 -30 -21 0 -31 5 -33 18 -6 33
6 49 35 45 24 -3 28 -8 28 -33z"/>
<path d="M3570 3605 c-25 -50 -25 -53 -28 -363 -4 -305 -4 -312 -25 -327 -12
-8 -29 -15 -39 -15 -13 0 -18 -8 -18 -30 0 -28 2 -30 38 -30 45 0 75 19 91 57
8 20 11 135 9 393 l-3 365 -25 -50z"/>
<path d="M1680 1933 l0 -648 55 -32 55 -32 0 514 0 515 55 0 54 0 1 -536 c0
-295 3 -540 6 -545 2 -5 19 -12 37 -18 18 -5 40 -12 50 -16 16 -7 17 27 17
624 l0 631 -105 0 -105 0 0 40 0 40 170 0 170 0 0 -145 c0 -108 3 -146 13
-147 6 -1 55 -2 107 -3 l95 0 3 -562 c2 -527 3 -563 20 -563 9 0 34 -3 55 -6
l37 -7 0 682 0 681 -45 0 -45 0 0 -40 0 -40 -60 0 -60 0 0 130 0 130 -290 0
-290 0 0 -647z"/>
<path d="M2570 1809 l0 -770 82 7 c46 4 119 14 163 23 l80 16 3 693 2 692 170
0 170 0 1 -612 c0 -337 3 -621 7 -630 6 -15 14 -13 65 18 l57 36 0 649 0 649
-400 0 -400 0 0 -771z m210 411 l0 -250 -45 0 -45 0 0 250 0 250 45 0 45 0 0
-250z m0 -620 l0 -160 -45 0 -45 0 0 160 0 160 45 0 45 0 0 -160z"/>
<path d="M3030 1760 c0 -346 3 -630 7 -630 3 0 30 8 60 17 l53 17 0 613 0 613
-60 0 -60 0 0 -630z"/>
<path d="M2140 1590 c0 -551 -7 -502 79 -516 l41 -7 0 507 0 506 -60 0 -60 0
0 -490z"/>
<path d="M1070 1960 c0 -16 78 -157 119 -215 48 -68 143 -185 175 -214 l26
-24 0 231 0 232 -160 0 c-105 0 -160 -4 -160 -10z"/>
<path d="M3650 1733 l0 -236 23 19 c83 69 205 231 291 387 l37 67 -176 0 -175
0 0 -237z"/>
</g>
</svg>
